<?xml version="1.0" encoding="UTF-8"?>
<svg id="Layer_2" data-name="Layer 2" xmlns="http://www.w3.org/2000/svg" viewBox="0 0 326.95 220.04">
  <defs>
    <style>
      .cls-1, .cls-2, .cls-3 {
        stroke-width: 0px;
      }

      .cls-2 {
        fill: #0751cf;
      }

      .cls-3 {
        fill: #fff;
      }
    </style>
  </defs>
  <g id="Layer_1-2" data-name="Layer 1">
    <g>
      <path class="cls-3" d="m44.8,131.59l.05,50.36c.1-15.86.24-31.73.34-47.59,0-1.07-.15-1.99-.39-2.77Z"/>
      <path class="cls-2" d="m44.8,131.59l.05,50.36c.1-15.86.24-31.73.34-47.59,0-1.07-.15-1.99-.39-2.77Z"/>
      <path class="cls-1" d="m326.9,57.61c0-7.44-6.03-13.48-13.48-13.43-30.8.1-106.91.39-147.98.58-10.22.05-20.44.29-30.66.44-2.43.05-4.62-.63-5.69-3.02-1.07-2.34-.34-4.43,1.22-6.33.78-.92,1.56-1.85,2.19-2.82,4.53-6.81,4.72-14.01,1.27-21.22C130.26,4.53,124.18.49,116.15.05c-9.05-.54-16.16,3.26-20.34,11.29-4.23,8.08-3.65,16.06,2.29,23.36.92,1.17,1.95,2.34,2.48,3.7,1.46,3.89-1.17,6.86-5.94,6.81-8.09-.03-26.74-.16-39.05-.25-6.48-.05-11.76,5.18-11.78,11.66l-.12,41.22c-.2,1.08-1.07,1.87-1.51,2.06-2.34,1.07-4.43.34-6.33-1.27-.88-.73-1.8-1.51-2.77-2.19-6.86-4.48-14.01-4.72-21.22-1.27-5.94,2.82-9.68,7.35-11.09,13.24-.39,1.36-.63,2.87-.73,4.43-.53,9.05,3.26,16.15,11.34,20.34,8.08,4.18,16.06,3.6,23.36-2.29,1.12-.92,2.34-1.95,3.65-2.48,1.95-.73,3.67-.69,4.89.43.45.39.39.64.41,2.32v51.54c0,5.84,4.66,10.57,10.5,10.6,14.42.07,38.85.21,41.23.21s4.53-.97,5.64-3.21c1.17-2.38.63-4.67-.92-6.72-.49-.58-1.02-1.22-1.51-1.8-6.96-8.52-6.13-20.53,1.85-27.98,8.03-7.54,20.58-7.54,28.61,0,7.83,7.35,8.52,19.56,1.56,27.98-.68.88-1.41,1.7-1.9,2.68-1.95,3.8-.1,7.83,4.04,8.76,1.27.24,2.58.24,3.84.24,12.51-.05,25.01-.15,37.52-.15l61.02.15,49.34,26.03c3.07,1.61,6.81-.63,6.81-4.14v-21.99h21.07c8.03,0,14.55-6.52,14.55-14.55-.05-29.44-.05-95.62-.05-121.21Zm-7.3,121.46c0,3.84-3.11,6.91-6.96,6.96-7.06,0-17.81,0-24.28-.05h-2.97v24.96c0,1.02-1.12,1.7-2.04,1.22l-41.12-21.65-4.43-2.34-3.26-1.7-.68-.34-8.76-.05h-2.97c-7.35.05-14.65.05-21.95.05-4.04,0-7.35-3.26-7.35-7.3v-4.04c0-12.31-.05-24.67-.15-36.98,0-1.9-.1-4.38-.88-6.76-.92-2.92-2.87-5.06-5.45-5.99-2.63-.97-5.55-.54-8.22,1.12-.83.54-1.61,1.17-2.34,1.75l-.54.44c-7.25,5.94-17.61,5.35-24.14-1.31-6.47-6.67-6.81-17.23-.78-24.09,6.23-7.01,16.35-8.03,24.04-2.38.39.29.73.58,1.12.88.88.68,1.75,1.36,2.73,1.95,2.87,1.65,6.13,1.9,8.9.63,2.72-1.31,4.67-3.89,5.21-7.15.39-1.99.44-3.99.44-5.84.05-10.41.05-20.78,0-31.19v-.97c0-4.09,3.26-7.4,7.35-7.4h110.99c4.67,0,8.47,3.8,8.47,8.47v119.12Z"/>
      <path class="cls-3" d="m319.6,59.95v119.12c0,3.84-3.11,6.91-6.96,6.96-7.06,0-17.81,0-24.28-.05h-2.97v24.96c0,1.02-1.12,1.7-2.04,1.22l-41.12-21.65-4.43-2.34-3.26-1.7-.68-.34-8.76-.05h-2.97c-7.35.05-14.65.05-21.95.05-4.04,0-7.35-3.26-7.35-7.3v-4.04c0-12.31-.05-24.67-.15-36.98,0-1.9-.1-4.38-.88-6.76-.92-2.92-2.87-5.06-5.45-5.99-2.63-.97-5.55-.54-8.22,1.12-.83.54-1.61,1.17-2.34,1.75l-.54.44c-7.25,5.94-17.61,5.35-24.14-1.31-6.47-6.67-6.81-17.23-.78-24.09,6.23-7.01,16.35-8.03,24.04-2.38.39.29.73.58,1.12.88.88.68,1.75,1.36,2.73,1.95,2.87,1.65,6.13,1.9,8.9.63,2.72-1.31,4.67-3.89,5.21-7.15.39-1.99.44-3.99.44-5.84.05-10.41.05-20.78,0-31.19v-.97c0-4.09,3.26-7.4,7.35-7.4h110.99c4.67,0,8.47,3.8,8.47,8.47Z"/>
    </g>
  </g>
</svg>